<svg width="17" height="16" viewBox="0 0 17 16" fill="none" xmlns="http://www.w3.org/2000/svg">
<g id="ic:round-star-rate">
<path id="Vector" d="M8.6003 3.49426C8.62216 3.50947 8.64619 3.53505 8.66171 3.58569C8.66174 3.58579 8.66177 3.58588 8.6618 3.58598L9.62001 6.74092V7.17333H10.12H13.0867C13.2444 7.17333 13.3166 7.37573 13.1814 7.47406C13.1812 7.47422 13.181 7.47437 13.1808 7.47452L10.7561 9.20647L10.4621 9.41644L10.5691 9.76147L11.5225 12.8348L11.5227 12.8355C11.5376 12.8834 11.5326 12.9163 11.5235 12.9404C11.513 12.9681 11.4915 12.9972 11.4591 13.0198C11.4267 13.0424 11.3917 13.0527 11.3617 13.0529C11.3356 13.0532 11.3032 13.0464 11.2641 13.0164L11.2629 13.0155L8.80294 11.1422L8.50055 10.9119L8.19777 11.1417L5.73777 13.0084L5.73591 13.0098C5.6968 13.0397 5.66439 13.0465 5.63834 13.0463C5.60831 13.046 5.57334 13.0357 5.54091 13.0131C5.5085 12.9905 5.48698 12.9615 5.47649 12.9337C5.46741 12.9097 5.4624 12.8768 5.47734 12.8288L5.47757 12.8281L6.4309 9.7548L6.53793 9.40977L6.24397 9.1998L3.8173 7.46646L3.81583 7.46542C3.776 7.43718 3.76037 7.40871 3.75312 7.38439C3.74471 7.3562 3.74414 7.32013 3.75619 7.2825C3.76824 7.24488 3.78977 7.21551 3.81345 7.19706C3.83399 7.18104 3.8639 7.16667 3.91335 7.16667H6.88001H7.24997L7.35816 6.81288L8.34483 3.58621L8.34485 3.58622L8.34628 3.58136C8.36094 3.53162 8.38384 3.50744 8.40406 3.49328C8.42775 3.47668 8.46145 3.465 8.50085 3.465C8.54024 3.465 8.57504 3.4767 8.6003 3.49426Z" stroke="#FFA600"/>
</g>
</svg>
